# xmcd
#
# Track frame offsets: 
#        150
#        13833
#        26219
#        39729
#        57853
#        62235
#        76835
#        87105
#        99149
#        115932
#        129001
#
# Disc length: 2173 seconds
#
# Revision: 0
# Processed by: cddbd v1.5.2PL0 Copyright (c) Steve Scherf et al.
# Submitted via: ExactAudioCopyFreeDBPlugin 1.0
#
DISCID=81087b0b
DTITLE=Reverend Beat-Man and Izobel Garcia - Baile Bruja Muerto
DYEAR=2018
DGENRE=Blues
TTITLE0=Pero Te Amo (but i love you)
TTITLE1=Come Back Lord
TTITLE2=I Never Told You
TTITLE3=Black Metal
TTITLE4=Viva La Figa
TTITLE5=Lass Uns Liebe Machen (hagamos el amor)
TTITLE6=Macorina
TTITLE7=Love Me Two Timws
TTITLE8=Nerviosa
TTITLE9=I'll Take Care Of You
TTITLE10=My Name Reverend Beatman
EXTD=
EXTT0=
EXTT1=
EXTT2=
EXTT3=
EXTT4=
EXTT5=
EXTT6=
EXTT7=
EXTT8=
EXTT9=
EXTT10=
PLAYORDER=
